<svg aria-hidden="true" version="1.1" xmlns="http://www.w3.org/2000/svg" xmlns:xlink="http://www.w3.org/1999/xlink">
<defs>
<symbol id="icon-bookmark-star" viewBox="0 0 32 32">
<path d="M4 31v-27c0-2.209 1.791-4 4-4v0h16c2.209 0 4 1.791 4 4v0 27c0 0 0 0 0 0.001 0 0.552-0.448 1-1 1-0.176 0-0.341-0.045-0.485-0.125l0.005 0.003-10.52-5.74-10.52 5.74c-0.139 0.077-0.304 0.123-0.48 0.123-0.552 0-1-0.448-1-1 0-0 0-0 0-0.001v0zM16.32 8.2c-0.059-0.119-0.18-0.2-0.32-0.2s-0.261 0.081-0.319 0.198l-0.001 0.002-1.268 2.57c-0.052 0.104-0.15 0.178-0.266 0.196l-0.002 0-2.84 0.412c-0.172 0.027-0.303 0.174-0.303 0.352 0 0.099 0.041 0.189 0.107 0.254l0 0 2.052 2.002c0.084 0.082 0.122 0.2 0.102 0.316l-0.482 2.828c-0.003 0.018-0.005 0.038-0.005 0.058 0 0.197 0.159 0.356 0.356 0.356 0.060 0 0.117-0.015 0.167-0.041l-0.002 0.001 2.54-1.336c0.048-0.026 0.105-0.041 0.165-0.041s0.117 0.015 0.167 0.041l-0.002-0.001 2.54 1.336c0.047 0.025 0.103 0.039 0.163 0.039 0.197 0 0.356-0.159 0.356-0.356 0-0.020-0.002-0.040-0.005-0.059l0 0.002-0.484-2.83c-0.004-0.019-0.006-0.041-0.006-0.063 0-0.099 0.040-0.188 0.106-0.253l0-0 2.056-2.002c0.066-0.065 0.107-0.155 0.107-0.254 0-0.178-0.13-0.325-0.301-0.352l-0.002-0-2.84-0.412c-0.118-0.018-0.216-0.092-0.267-0.194l-0.001-0.002-1.268-2.568z"></path>
</symbol>
<symbol id="icon-bullseye" viewBox="0 0 32 32">
<path d="M16 30c-7.732 0-14-6.268-14-14s6.268-14 14-14v0c7.732 0 14 6.268 14 14s-6.268 14-14 14v0zM16 32c8.837 0 16-7.163 16-16s-7.163-16-16-16v0c-8.837 0-16 7.163-16 16s7.163 16 16 16v0z"></path>
<path d="M16 26c-5.523 0-10-4.477-10-10s4.477-10 10-10v0c5.523 0 10 4.477 10 10s-4.477 10-10 10v0zM16 28c6.627 0 12-5.373 12-12s-5.373-12-12-12v0c-6.627 0-12 5.373-12 12s5.373 12 12 12v0z"></path>
<path d="M16 22c-3.314 0-6-2.686-6-6s2.686-6 6-6v0c3.314 0 6 2.686 6 6s-2.686 6-6 6v0zM16 24c4.418 0 8-3.582 8-8s-3.582-8-8-8v0c-4.418 0-8 3.582-8 8s3.582 8 8 8v0z"></path>
<path d="M19 16c0 1.657-1.343 3-3 3s-3-1.343-3-3v0c0-1.657 1.343-3 3-3s3 1.343 3 3v0z"></path>
</symbol>
<symbol id="icon-chat-dots" viewBox="0 0 32 32">
<path d="M32 16c0 7.732-7.164 14-16 14-0.007 0-0.016 0-0.024 0-1.661 0-3.269-0.223-4.797-0.642l0.127 0.030c-1.168 0.592-3.85 1.728-8.362 2.468-0.4 0.064-0.704-0.352-0.546-0.724 0.708-1.672 1.348-3.9 1.54-5.932-2.45-2.46-3.938-5.68-3.938-9.2 0-7.732 7.164-14 16-14s16 6.268 16 14zM10 16c0-1.105-0.895-2-2-2s-2 0.895-2 2v0c0 1.105 0.895 2 2 2s2-0.895 2-2v0zM18 16c0-1.105-0.895-2-2-2s-2 0.895-2 2v0c0 1.105 0.895 2 2 2s2-0.895 2-2v0zM24 18c1.105 0 2-0.895 2-2s-0.895-2-2-2v0c-1.105 0-2 0.895-2 2s0.895 2 2 2v0z"></path>
</symbol>
<symbol id="icon-image" viewBox="0 0 32 32">
<path d="M0.004 6c0-2.209 1.791-4 4-4v0h24c2.209 0 4 1.791 4 4v0 20c0 2.209-1.791 4-4 4v0h-24c-2.209 0-4-1.791-4-4v0-20zM2.004 24v2c0 1.105 0.895 2 2 2v0h24c1.105 0 2-0.895 2-2v0-7l-7.554-3.894c-0.13-0.067-0.285-0.106-0.448-0.106-0.276 0-0.525 0.112-0.706 0.292l-7.42 7.42-5.32-3.544c-0.156-0.105-0.348-0.168-0.554-0.168-0.276 0-0.525 0.111-0.706 0.292l0-0-5.292 4.708zM12.004 11c0-1.657-1.343-3-3-3s-3 1.343-3 3v0c0 1.657 1.343 3 3 3s3-1.343 3-3v0z"></path>
</symbol>
<symbol id="icon-person" viewBox="0 0 32 32">
<path d="M6 28s-2 0-2-2 2-8 12-8 12 6 12 8-2 2-2 2h-20zM16 16c3.314 0 6-2.686 6-6s-2.686-6-6-6v0c-3.314 0-6 2.686-6 6s2.686 6 6 6v0z"></path>
</symbol>
<symbol id="icon-file-earmark-text" viewBox="0 0 32 32">
<path d="M18.586 0h-10.586c-2.209 0-4 1.791-4 4v0 24c0 2.209 1.791 4 4 4v0h16c2.209 0 4-1.791 4-4v0-18.586c-0-0.552-0.224-1.052-0.586-1.414l-7.414-7.414c-0.362-0.362-0.862-0.586-1.414-0.586h-0zM19 7v-4l6 6h-4c-1.105 0-2-0.895-2-2v0zM9 18c-0.552 0-1-0.448-1-1s0.448-1 1-1v0h14c0.552 0 1 0.448 1 1s-0.448 1-1 1v0h-14zM8 21c0-0.552 0.448-1 1-1v0h14c0.552 0 1 0.448 1 1s-0.448 1-1 1v0h-14c-0.552 0-1-0.448-1-1v0zM9 26c-0.552 0-1-0.448-1-1s0.448-1 1-1v0h8c0.552 0 1 0.448 1 1s-0.448 1-1 1v0h-8z"></path>
</symbol>
<symbol id="icon-puzzle" viewBox="0 0 32 32">
<path d="M6.224 7.29c-0.009-0.087-0.014-0.188-0.014-0.29 0-1.657 1.343-3 3-3 0 0 0 0 0 0h4.79c0.552 0 1 0.448 1 1v0 0.764c0 1.392-0.994 2.364-1.744 2.938-0.091 0.065-0.167 0.143-0.228 0.233l-0.002 0.003c-0.009 0.014-0.018 0.031-0.024 0.048l-0 0.002-0.002 0.012v0.006l0.006 0.020c0.008 0.020 0.028 0.056 0.072 0.106 0.15 0.16 0.329 0.29 0.529 0.384l0.011 0.004c0.562 0.28 1.402 0.48 2.382 0.48 0.984 0 1.824-0.2 2.38-0.48 0.211-0.097 0.391-0.228 0.541-0.387l0.001-0.001c0.028-0.031 0.052-0.067 0.071-0.105l0.001-0.003 0.006-0.020v-0.016c-0.006-0.019-0.015-0.036-0.025-0.051l0.001 0.001c-0.063-0.093-0.139-0.171-0.227-0.234l-0.003-0.002c-0.75-0.574-1.744-1.546-1.744-2.938v-0.764c0 0 0 0 0 0 0-0.552 0.447-0.999 0.998-1h4.79c0 0 0 0 0 0 1.657 0 3 1.343 3 3 0 0.102-0.005 0.203-0.015 0.303l0.001-0.013-0.486 5.71h0.474c0.39 0 0.84-0.294 1.35-0.96 0.42-0.548 1.056-1.040 1.886-1.040 1.136 0 1.894 0.894 2.308 1.724 0.446 0.89 0.692 2.050 0.692 3.276s-0.246 2.386-0.692 3.276c-0.414 0.83-1.172 1.724-2.308 1.724-0.83 0-1.466-0.492-1.886-1.040-0.51-0.666-0.96-0.96-1.35-0.96h-0.474l0.486 5.71c0.009 0.087 0.014 0.188 0.014 0.29 0 1.657-1.343 3-3 3-0 0-0 0-0 0h-4.79c-0.552 0-1-0.448-1-1v0-0.764c0-1.392 0.994-2.364 1.744-2.938 0.091-0.065 0.167-0.143 0.228-0.233l0.002-0.003c0.009-0.014 0.017-0.031 0.024-0.048l0-0.002 0.002-0.012v-0.006l-0.006-0.020c-0.020-0.041-0.044-0.076-0.072-0.106l0 0c-0.15-0.16-0.329-0.29-0.529-0.384l-0.011-0.004c-0.562-0.28-1.402-0.48-2.382-0.48-0.982 0-1.824 0.2-2.38 0.48-0.211 0.097-0.391 0.228-0.541 0.387l-0.001 0.001c-0.028 0.031-0.052 0.067-0.071 0.105l-0.001 0.003-0.006 0.020v0.004l0.002 0.012c0.007 0.019 0.015 0.036 0.025 0.051l-0.001-0.001c0.032 0.054 0.1 0.136 0.23 0.236 0.75 0.574 1.744 1.546 1.744 2.938v0.764c0 0.552-0.448 1-1 1v0h-4.79c-0 0-0 0-0 0-1.657 0-3-1.343-3-3 0-0.102 0.005-0.203 0.015-0.303l-0.001 0.013 0.488-5.71h-0.476c-0.39 0-0.84 0.294-1.35 0.96-0.42 0.548-1.056 1.040-1.886 1.040-1.136 0-1.894-0.894-2.308-1.724-0.446-0.89-0.692-2.050-0.692-3.276s0.246-2.386 0.692-3.276c0.414-0.83 1.172-1.724 2.308-1.724 0.83 0 1.466 0.492 1.886 1.040 0.51 0.666 0.96 0.96 1.35 0.96h0.476l-0.488-5.71z"></path>
</symbol>
<symbol id="icon-tools" viewBox="0 0 32 32">
<path d="M2 0l-2 2 4.4 6.162c0.367 0.51 0.959 0.838 1.628 0.838 0.001 0 0.002 0 0.002 0h0.14c0 0 0.001 0 0.002 0 0.552 0 1.052 0.224 1.414 0.586l5.35 5.35-5.234 5.308c-0.508-0.155-1.091-0.244-1.696-0.244-3.315 0-6.003 2.686-6.006 6v0c0.005 3.31 2.689 5.992 6 5.992 3.314 0 6-2.686 6-6 0-0.604-0.089-1.187-0.255-1.736l0.011 0.043 5.308-5.234 1.936 1.936-0.61 1.828c-0.065 0.188-0.102 0.405-0.102 0.631 0 0.553 0.224 1.053 0.586 1.415l6.54 6.54c0.361 0.363 0.861 0.588 1.414 0.588s1.053-0.225 1.414-0.588l3.172-3.172c0.363-0.361 0.588-0.861 0.588-1.414s-0.225-1.053-0.588-1.414l-6.54-6.54c-0.362-0.362-0.862-0.586-1.415-0.586-0.226 0-0.443 0.037-0.645 0.106l0.014-0.004-1.828 0.61-1.92-1.92 5.36-5.286c0.465 0.129 0.999 0.203 1.55 0.203 3.315 0 6.003-2.684 6.010-5.997v-0.001c0-0.538-0.070-1.060-0.204-1.554l-4.28 4.282-3.516-0.728-0.728-3.514 4.282-4.282c-0.467-0.131-1.004-0.206-1.558-0.206-3.314 0-6 2.686-6 6 0 0.557 0.076 1.096 0.218 1.608l-0.010-0.042-5.28 5.356-5.338-5.334c-0.362-0.362-0.586-0.862-0.586-1.414v-0.142c0-0 0-0 0-0 0-0.669-0.328-1.261-0.832-1.624l-0.006-0.004-6.162-4.402zM21.292 21.292c0.181-0.181 0.431-0.294 0.708-0.294s0.527 0.112 0.708 0.294l5.828 5.83c0.174 0.18 0.281 0.425 0.281 0.695 0 0.552-0.448 1-1 1-0.27 0-0.515-0.107-0.695-0.281l-5.83-5.828c-0.181-0.181-0.294-0.431-0.294-0.708s0.112-0.527 0.294-0.708l0-0zM6 22l0.942 0.484 1.058 0.052 0.574 0.89 0.89 0.574 0.052 1.058 0.484 0.942-0.484 0.942-0.052 1.058-0.89 0.574-0.574 0.89-1.058 0.052-0.942 0.484-0.942-0.484-1.058-0.052-0.574-0.89-0.89-0.574-0.052-1.058-0.484-0.942 0.484-0.942 0.052-1.058 0.89-0.574 0.574-0.89 1.058-0.052 0.942-0.484z"></path>
</symbol>
<symbol id="icon-ticket" viewBox="0 0 32 32">
<path d="M0 9c0-1.657 1.343-3 3-3v0h26c1.657 0 3 1.343 3 3v0 3c0 0.552-0.448 1-1 1v0c-1.657 0-3 1.343-3 3s1.343 3 3 3v0c0.552 0 1 0.448 1 1v0 3c0 1.657-1.343 3-3 3v0h-26c-1.657 0-3-1.343-3-3v0-3c0-0.552 0.448-1 1-1v0c1.657 0 3-1.343 3-3s-1.343-3-3-3v0c-0.552 0-1-0.448-1-1v0-3zM8 7v2h2v-2h-2zM10 13v-2h-2v2h2zM24 13v-2h-2v2h2zM22 9h2v-2h-2v2zM10 15h-2v2h2v-2zM24 17v-2h-2v2h2zM10 19h-2v2h2v-2zM24 21v-2h-2v2h2zM8 23v2h2v-2h-2zM22 25h2v-2h-2v2z"></path>
</symbol>
</defs>
</svg>
